<?xml version="1.0" encoding="utf-8"?><svg version="1.1" id="Layer_1" xmlns="http://www.w3.org/2000/svg" xmlns:xlink="http://www.w3.org/1999/xlink" x="0px" y="0px" width="96px" height="75.134px" viewBox="0 0 96 75.134" enable-background="new 0 0 96 75.134" xml:space="preserve"><g><path d="M67.459,23.385c-0.59,0.289-1.177,0.605-1.762,0.948c-1.762,1.029-3.496,2.289-5.263,3.735l-3.776-4.329 c1.303-1.21,2.721-2.314,4.221-3.29c1.199-0.78,2.449-1.474,3.732-2.071c0.514-0.257,1.032-0.5,1.56-0.726 c-2.494-4.413-6.079-7.581-10.144-9.531c-4.062-1.949-8.61-2.697-13.038-2.269c-4.4,0.426-8.67,2.021-12.203,4.763 c-4.083,3.168-7.189,7.902-8.381,14.172l-0.373,1.962l-1.955,0.343c-1.914,0.336-3.622,0.796-5.124,1.38 c-1.455,0.565-2.749,1.259-3.88,2.078c-0.906,0.656-1.689,1.391-2.353,2.187c-2.056,2.464-3.009,5.549-2.987,8.671 c0.023,3.171,1.056,6.373,2.964,9.01c0.707,0.978,1.533,1.873,2.471,2.655c0.95,0.793,2.022,1.441,3.224,1.938 c1.191,0.491,2.516,0.844,3.98,1.05h6.672v5.755h-6.78l-0.359-0.034c-2.085-0.265-3.979-0.758-5.693-1.465 c-1.772-0.731-3.346-1.681-4.73-2.837c-1.311-1.093-2.459-2.337-3.438-3.689C1.44,50.195,0.033,45.802,0,41.432 c-0.032-4.421,1.344-8.823,4.313-12.381c0.964-1.154,2.091-2.215,3.388-3.153c1.51-1.093,3.238-2.019,5.185-2.775 c1.345-0.523,2.778-0.96,4.299-1.31c1.717-6.825,5.386-12.084,10.093-15.738c4.403-3.417,9.71-5.404,15.171-5.932 C47.884-0.383,53.482,0.544,58.5,2.952c5.487,2.632,10.267,7.015,13.37,13.183l0,0c1.247-0.195,2.498-0.293,3.741-0.285 c5.246,0.035,10.309,1.914,14.299,6.21c0.835,0.899,1.626,1.913,2.363,3.047c2.5,3.844,3.779,8.976,3.725,14 c-0.054,4.927-1.386,9.836-4.102,13.449c-1.771,2.354-4.045,4.273-6.771,5.799c-2.628,1.472-5.687,2.587-9.125,3.385l-0.641,0.078 h-4.405v-5.755h4.097c2.76-0.666,5.194-1.563,7.264-2.721c2.055-1.151,3.733-2.55,4.993-4.227 c1.954-2.599,2.914-6.279,2.955-10.054c0.044-3.959-0.919-7.934-2.803-10.83c-0.541-0.832-1.129-1.584-1.756-2.259 c-2.819-3.036-6.401-4.364-10.116-4.389C72.889,21.566,70.105,22.214,67.459,23.385L67.459,23.385L67.459,23.385z M48,41.036 c9.414,0,17.049,7.635,17.049,17.049S57.414,75.134,48,75.134s-17.049-7.635-17.049-17.049S38.586,41.036,48,41.036L48,41.036z M58.285,51.316L41.232,68.369C43.174,69.65,45.5,70.396,48,70.396c6.798,0,12.312-5.514,12.312-12.312 C60.312,55.585,59.565,53.259,58.285,51.316L58.285,51.316L58.285,51.316z M37.716,64.853L54.769,47.8 C52.826,46.52,50.5,45.772,48,45.772c-6.798,0-12.312,5.514-12.312,12.312C35.688,60.585,36.435,62.91,37.716,64.853L37.716,64.853 L37.716,64.853z"/></g></svg>